{"title":"Little_Big_Town_The_Talk_720p_20110329_TTL","uid":6282788,"size":366196050,"categoryP":"video","categoryS":"hd___tv_shows","magnet":"?xt=urn:btih:ce7ce4efdec3eb87d8589425c1dc497e194ae2ca&amp;dn=Little_Big_Town_The_Talk_720p_20110329_TTL&amp;tr=udp%3A%2F%2Ftracker.openbittorrent.com%3A80&amp;tr=udp%3A%2F%2Fopen.demonii.com%3A1337&amp;tr=udp%3A%2F%2Ftracker.coppersurfer.tk%3A6969&amp;tr=udp%3A%2F%2Fexodus.desync.com%3A6969","seeders":0,"leechers":1,"uploader":"thetorrentlord","files":4,"time":1301503444,"description":"This includes the full segment and just the live song and an MP3 of the song. Enjoy and please share.  \n\n                                                                 \t\t\t\t\t\n\n\t\t\t\t\t\t\t\t\t\t\t\t\t\n\n\t\t\t\t\t\t\t\t\t\t\n\n******************************************************************************************************\n\n******************************************************************************************************\t\n\n\t\t\t\t\t\t\t\t\t\t\t\t\t\n\n\t\t\t\t\t\t\t\t\t\t\t\t\t\n\n\t\t\t\t\t\t\t\t\t\t\t\t\t\n\n\t\t\t\t\t\t\t\t\t\t\t\t\t\n\n\t\t\t\t\t\t\n\nThe_Talk_Little_Big_Town_FULL_SEGMENT_720p_20110329_TTL.avi\nFormat                           : AVI\nFormat/Info                      : Audio Video Interleave\nFile size                        : 222 MiB\nDuration                         : 13mn 29s\nOverall bit rate                 : 2 297 Kbps\nMovie name                       : The_Talk_Little Big Town_FULL_SEGMENT_720p_20110329_TTL.mpg\nDirector                         : created.with.SUPER(C).v2010.bld.37\nWriting application              : SUPER(C)   \n\nVideo\nID                               : 0\nFormat                           : MPEG-4 Visual\nFormat profile                   : Simple@L3\nFormat settings, BVOP            : No\nFormat settings, QPel            : No\nFormat settings, GMC             : No warppoints\nFormat settings, Matrix          : Default (H.263)\nCodec ID                         : XVID\nCodec ID/Hint                    : XviD\nDuration                         : 6mn 44s\nBit rate                         : 4 470 Kbps\nWidth                            : 1 280 pixels\nHeight                           : 720 pixels\nDisplay aspect ratio             : 16:9\nFrame rate                       : 29.970 fps\nResolution                       : 8 bits\nColorimetry                      : 4:2:0\nScan type                        : Progressive\nBits/(Pixel*Frame)               : 0.162\nStream size                      : 216 MiB (97%)\nWriting library                  : XviD 1.1.2 (UTC 2006-11-01)\n\nAudio\nID                               : 1\nFormat                           : MPEG Audio\nFormat version                   : Version 2\nFormat profile                   : Layer 3\nMode                             : Joint stereo\nFormat_Settings_ModeExtension    : MS Stereo\nCodec ID                         : 55\nCodec ID/Hint                    : MP3\nDuration                         : 13mn 29s\nBit rate mode                    : Constant\nBit rate                         : 112 Kbps\nChannel(s)                       : 2 channels\nSampling rate                    : 22.05 KHz\nStream size                      : 5.41 MiB (2%)\nAlignment                        : Aligned on interleaves\nInterleave, duration             : 26 ms (0.78 video frame)\n\n","torrent":{"xt":"urn:btih:ce7ce4efdec3eb87d8589425c1dc497e194ae2ca","amp;dn":"Little_Big_Town_The_Talk_720p_20110329_TTL","amp;tr":["udp%3A%2F%2Ftracker.openbittorrent.com%3A80","udp%3A%2F%2Fopen.demonii.com%3A1337","udp%3A%2F%2Ftracker.coppersurfer.tk%3A6969","udp%3A%2F%2Fexodus.desync.com%3A6969"],"infoHash":"ce7ce4efdec3eb87d8589425c1dc497e194ae2ca","infoHashBuffer":{"type":"Buffer","data":[206,124,228,239,222,195,235,135,216,88,148,37,193,220,73,126,25,74,226,202]},"announce":[],"urlList":[]}}